<svg width="176" height="104" viewBox="0 0 176 104" fill="none" xmlns="http://www.w3.org/2000/svg">
<rect x="1.04297" y="46.5427" width="118" height="19" rx="1.5" fill="#FEFEFF" stroke="#15294A"/>
<path d="M12.9942 60.427C15.5506 60.0428 17.3115 57.659 16.9273 55.1026C16.543 52.5463 14.1593 50.7854 11.6029 51.1696C9.04655 51.5538 7.28567 53.9376 7.66987 56.4939C8.05407 59.0503 10.4379 60.8112 12.9942 60.427Z" fill="#9747FF" stroke="#15294A"/>
<path d="M24.543 53.0427H105.543" stroke="black" stroke-linecap="round"/>
<path d="M24.543 58.2927H105.543" stroke="black" stroke-linecap="round"/>
<rect x="1.04297" y="72.5427" width="118" height="19" rx="1.5" fill="#FEFEFF" stroke="#15294A"/>
<path d="M12.9942 86.427C15.5506 86.0428 17.3115 83.659 16.9273 81.1026C16.543 78.5463 14.1593 76.7854 11.6029 77.1696C9.04655 77.5538 7.28567 79.9376 7.66987 82.4939C8.05407 85.0503 10.4379 86.8112 12.9942 86.427Z" fill="#9747FF" stroke="#15294A"/>
<path d="M24.543 79.0427H105.543" stroke="black" stroke-linecap="round"/>
<path d="M24.543 84.2927H105.543" stroke="black" stroke-linecap="round"/>
<path d="M132.001 81C139.436 78 141.273 72.9057 139.436 67.5688L137.5 64C138.699 74 134.334 79.5 132.001 81Z" fill="#4FE8B7"/>
<path d="M103.278 76.9745L119.383 71.431L138.71 64.7787L154.815 59.2352L148.732 56.2674C147.082 55.4626 145.82 54.0354 145.222 52.2997L141.721 42.1262C138.824 33.7113 130.982 28.4037 122.562 28.3343L122.184 27.2346C120.959 23.6767 117.082 21.7852 113.524 23.0099C109.967 24.2345 108.075 28.1115 109.3 31.6694L109.678 32.7691C103.085 38.006 100.171 47.0158 103.068 55.4307L106.569 65.6042C107.167 67.3399 107.05 69.2417 106.246 70.8915L103.278 76.9745Z" fill="#FEFEFF"/>
<path d="M138.71 64.7787L154.815 59.2352L148.732 56.2674C147.082 55.4626 145.82 54.0354 145.222 52.2997L141.721 42.1262C138.824 33.7113 130.982 28.4037 122.562 28.3343L122.184 27.2346C120.959 23.6767 117.082 21.7852 113.524 23.0099C109.967 24.2345 108.075 28.1115 109.3 31.6694L109.678 32.7691C103.085 38.006 100.171 47.0158 103.068 55.4307L106.569 65.6042C107.167 67.3399 107.05 69.2417 106.246 70.8915L103.278 76.9745L119.383 71.431M138.71 64.7787L139.818 67.9998C141.655 73.3366 138.818 79.1521 133.481 80.9891C128.144 82.8261 122.329 79.9889 120.492 74.652L119.383 71.431M138.71 64.7787L119.383 71.431" stroke="#15294A" stroke-width="2" stroke-linecap="round" stroke-linejoin="round"/>
<path d="M139.932 47.4019C145.791 45.3852 148.906 39.0006 146.889 33.1416C144.872 27.2825 138.488 24.1677 132.629 26.1844C126.77 28.2011 123.655 34.5857 125.672 40.4448C127.688 46.3038 134.073 49.4186 139.932 47.4019Z" fill="#9747FF" stroke="#15294A" stroke-width="2"/>
<path d="M110.501 32.5C110.381 30.6667 113.002 25.5 116.001 23.5C111 24 108.501 28 110.501 32.5Z" fill="#4FE8B7"/>
<path d="M94.5041 23.4396C91.7005 23.936 85.5968 27.6872 87.2528 36.6634" stroke="#15294A" stroke-width="1.5" stroke-linecap="round"/>
<path d="M96.4996 29.0076C94.8025 29.4374 91.702 31.8906 92.5335 36.4002" stroke="#15294A" stroke-width="1.5" stroke-linecap="round"/>
</svg>
