<svg width="220" height="220" viewBox="0 0 220 220" fill="none" xmlns="http://www.w3.org/2000/svg">
<rect width="220" height="220" rx="110" fill="#F7F7F9"/>
<path fill-rule="evenodd" clip-rule="evenodd" d="M175.751 160.11L98.4049 150.072C95.8426 149.929 94.051 146.706 94.6189 143.259L106.038 73.0147C106.499 70.2155 108.382 68.2283 110.462 68.344L192.603 69.4447C195.165 69.5872 196.955 72.8093 196.388 76.2558L179.525 158.749C179.063 161.548 177.832 160.226 175.751 160.11Z" fill="#4FE8B7"/>
<path fill-rule="evenodd" clip-rule="evenodd" d="M174.762 159.43L98.4049 150.072C95.8426 149.929 94.051 146.706 94.6189 143.259L105.016 74.1153C105.477 71.3162 107.361 69.329 109.44 69.4447L192.603 69.4447C195.165 69.5872 196.955 72.8093 196.388 76.2558L180.205 158.069C180.205 162.125 176.843 159.545 174.762 159.43Z" stroke="#15294A" stroke-width="1.5" stroke-linecap="round" stroke-linejoin="round"/>
<path fill-rule="evenodd" clip-rule="evenodd" d="M57.4131 150.643L177.522 152.416L191.979 74.2105C192.438 71.725 190.552 69.4235 188.024 69.3862L72.7524 67.6844L57.4131 150.643Z" fill="#FEFEFF" stroke="#15294A" stroke-width="1.5" stroke-linecap="round" stroke-linejoin="round"/>
<path fill-rule="evenodd" clip-rule="evenodd" d="M67.1953 144.779L169.954 146.296L183.074 75.3218L80.3187 73.8048L67.1953 144.779Z" fill="#FEFEFF" stroke="#15294A" stroke-width="1.5" stroke-linecap="round" stroke-linejoin="round"/>
<path fill-rule="evenodd" clip-rule="evenodd" d="M76.7801 89.3447L180.206 91.386L183.074 75.3218L80.3187 73.8048L76.7801 89.3447Z" fill="#4FE8B7" stroke="#15294A" stroke-width="1.5" stroke-linecap="round" stroke-linejoin="round"/>
<path fill-rule="evenodd" clip-rule="evenodd" d="M177.397 160.84L17.583 158.481L17.7073 150.059L177.521 152.418L177.397 160.84Z" fill="#FEFEFF"/>
<path fill-rule="evenodd" clip-rule="evenodd" d="M177.397 160.84L17.583 158.481L17.7073 150.059L177.521 152.418L177.397 160.84Z" stroke="#15294A" stroke-width="1.5" stroke-linecap="round" stroke-linejoin="round"/>
<path fill-rule="evenodd" clip-rule="evenodd" d="M27.4926 157.5L18.6247 157.353L18.749 151.249L27.617 151.396L27.4926 157.5Z" fill="#4FE8B7"/>
<path d="M148.918 130.851L166.473 114.52L184.028 130.851L203.748 112.5" stroke="#15294A" stroke-width="1.5" stroke-linecap="round" stroke-linejoin="round"/>
<path fill-rule="evenodd" clip-rule="evenodd" d="M146.467 112.364C146.317 112.748 145.947 113 145.535 113H92.4646C91.7605 113 91.2769 112.292 91.5333 111.636C91.6832 111.252 92.0528 111 92.4646 111H145.535C146.239 111 146.723 111.708 146.467 112.364Z" fill="#15294A"/>
<path fill-rule="evenodd" clip-rule="evenodd" d="M147.467 106.364C147.317 106.748 146.947 107 146.535 107H93.4646C92.7605 107 92.2769 106.292 92.5333 105.636C92.6832 105.252 93.0528 105 93.4646 105H146.535C147.239 105 147.723 105.708 147.467 106.364Z" fill="#15294A"/>
<path fill-rule="evenodd" clip-rule="evenodd" d="M111.47 122.918H14.5L28.0785 58.7251H125.198L111.47 122.918Z" fill="#FEFEFF"/>
<path fill-rule="evenodd" clip-rule="evenodd" d="M112.51 122.918H14.4648L28.0794 58.7251H125.199L112.51 122.918Z" stroke="#15294A" stroke-width="1.5" stroke-linecap="round" stroke-linejoin="round"/>
<path fill-rule="evenodd" clip-rule="evenodd" d="M44.4348 88.5058C43.9608 91.8242 41.1187 94.2891 37.7666 94.2891C33.6675 94.2891 30.5187 90.6585 31.0984 86.6005L31.2151 85.7833C31.6892 82.4649 34.5312 80 37.8833 80C41.9825 80 45.1313 83.6306 44.5516 87.6885L44.4348 88.5058Z" fill="#9747FF" stroke="#15294A" stroke-width="1.5" stroke-linecap="round" stroke-linejoin="round"/>
<path fill-rule="evenodd" clip-rule="evenodd" d="M122.903 70.3771H25.5508L28.0787 58.7261H125.199L122.903 70.3771Z" fill="#4FE8B7"/>
<path fill-rule="evenodd" clip-rule="evenodd" d="M122.903 70.3771H25.5508L28.0787 58.7261H125.199L122.903 70.3771Z" stroke="#15294A" stroke-width="1.5" stroke-linecap="round" stroke-linejoin="round"/>
<path fill-rule="evenodd" clip-rule="evenodd" d="M36.1797 64.5496C36.0288 65.4838 35.1473 66.2407 34.2155 66.2407C33.2813 66.2407 32.6489 65.4838 32.8022 64.5496C32.9531 63.6178 33.8346 62.8608 34.7664 62.8608C35.7006 62.8608 36.333 63.6178 36.1797 64.5496Z" fill="#FEFEFF"/>
<path d="M36.1797 64.5496C36.0288 65.4838 35.1473 66.2407 34.2155 66.2407C33.2813 66.2407 32.6489 65.4838 32.8022 64.5496C32.9531 63.6178 33.8346 62.8608 34.7664 62.8608C35.7006 62.8608 36.333 63.6178 36.1797 64.5496" stroke="#15294A"/>
<path fill-rule="evenodd" clip-rule="evenodd" d="M43.0941 64.5496C42.9408 65.4838 42.0593 66.2407 41.1275 66.2407C40.1957 66.2407 39.5609 65.4838 39.7142 64.5496C39.8675 63.6178 40.749 62.8608 41.6808 62.8608C42.6126 62.8608 43.245 63.6178 43.0941 64.5496Z" fill="#FEFEFF"/>
<path d="M43.0941 64.5496C42.9408 65.4838 42.0593 66.2407 41.1275 66.2407C40.1957 66.2407 39.5609 65.4838 39.7142 64.5496C39.8675 63.6178 40.749 62.8608 41.6808 62.8608C42.6126 62.8608 43.245 63.6178 43.0941 64.5496" stroke="#15294A"/>
<path fill-rule="evenodd" clip-rule="evenodd" d="M50.1562 64.5496C50.0053 65.4838 49.1238 66.2407 48.192 66.2407C47.2578 66.2407 46.6255 65.4838 46.7788 64.5496C46.9297 63.6178 47.8112 62.8608 48.743 62.8608C49.6772 62.8608 50.3095 63.6178 50.1562 64.5496Z" fill="#FEFEFF"/>
<path d="M50.1562 64.5496C50.0053 65.4838 49.1238 66.2407 48.192 66.2407C47.2578 66.2407 46.6255 65.4838 46.7788 64.5496C46.9297 63.6178 47.8112 62.8608 48.743 62.8608C49.6772 62.8608 50.3095 63.6178 50.1562 64.5496" stroke="#15294A"/>
<path fill-rule="evenodd" clip-rule="evenodd" d="M112.407 83.3918C112.25 83.7606 111.888 84 111.487 84H53.5127C52.7958 84 52.3118 83.2678 52.5927 82.6082C52.7497 82.2394 53.1118 82 53.5127 82H111.487C112.204 82 112.688 82.7322 112.407 83.3918Z" fill="#15294A"/>
<path fill-rule="evenodd" clip-rule="evenodd" d="M89.635 96.2752C89.5122 96.7042 89.1199 97 88.6736 97H50.3264C49.6618 97 49.1821 96.3638 49.365 95.7248C49.4878 95.2958 49.8801 95 50.3264 95H88.6736C89.3382 95 89.8179 95.6362 89.635 96.2752Z" fill="#15294A"/>
<path fill-rule="evenodd" clip-rule="evenodd" d="M90.6457 89.2689C90.525 89.7011 90.1312 90 89.6825 90H52.3175C51.6556 90 51.1763 89.3686 51.3543 88.7311C51.475 88.2989 51.8688 88 52.3175 88H89.6825C90.3444 88 90.8237 88.6314 90.6457 89.2689Z" fill="#15294A"/>
<path d="M149.98 133.211C151.897 133.211 153.451 131.656 153.451 129.739C153.451 127.821 151.897 126.267 149.98 126.267C148.062 126.267 146.508 127.821 146.508 129.739C146.508 131.656 148.062 133.211 149.98 133.211Z" fill="#FEFEFF" stroke="#15294A" stroke-width="1.5"/>
<path d="M166.61 119.353C168.528 119.353 170.082 117.799 170.082 115.881C170.082 113.964 168.528 112.41 166.61 112.41C164.693 112.41 163.139 113.964 163.139 115.881C163.139 117.799 164.693 119.353 166.61 119.353Z" fill="#FEFEFF" stroke="#15294A" stroke-width="1.5"/>
<path d="M183.608 132.962C185.526 132.962 187.08 131.407 187.08 129.49C187.08 127.572 185.526 126.018 183.608 126.018C181.691 126.018 180.137 127.572 180.137 129.49C180.137 131.407 181.691 132.962 183.608 132.962Z" fill="#FEFEFF" stroke="#15294A" stroke-width="1.5"/>
<path d="M202.812 116.193C204.729 116.193 206.283 114.639 206.283 112.721C206.283 110.804 204.729 109.25 202.812 109.25C200.894 109.25 199.34 110.804 199.34 112.721C199.34 114.639 200.894 116.193 202.812 116.193Z" fill="#FEFEFF" stroke="#15294A" stroke-width="1.5"/>
</svg>
