<svg width="195" height="105" viewBox="0 0 195 105" fill="none" xmlns="http://www.w3.org/2000/svg">
<g id="Group 133534">
<g id="Group 133533">
<g id="Group 1013">
<path id="Fill 24" fill-rule="evenodd" clip-rule="evenodd" d="M162.753 103.11L85.4066 93.0715C82.8442 92.929 81.0526 89.7055 81.6205 86.259L93.0399 16.0147C93.5004 13.2155 95.3839 11.2283 97.4638 11.344L179.604 12.4447C182.167 12.5872 183.956 15.8093 183.39 19.2558L166.527 101.749C166.065 104.548 164.833 103.226 162.753 103.11Z" fill="#4FE8B7"/>
<path id="Stroke 26" fill-rule="evenodd" clip-rule="evenodd" d="M161.764 102.43L85.4066 93.0715C82.8442 92.929 81.0526 89.7055 81.6205 86.259L92.0181 17.1153C92.4787 14.3162 94.3622 12.329 96.442 12.4447L179.604 12.4447C182.167 12.5872 183.956 15.8093 183.39 19.2558L167.207 101.069C167.207 105.125 163.844 102.545 161.764 102.43Z" stroke="#15294A" stroke-width="1.5" stroke-linecap="round" stroke-linejoin="round"/>
<g id="Group 989">
<path id="Stroke 982" fill-rule="evenodd" clip-rule="evenodd" d="M44.4142 93.6425L164.523 95.4157L178.98 17.2105C179.439 14.725 177.553 12.4235 175.026 12.3862L59.7534 10.6844L44.4142 93.6425Z" fill="#FEFEFF" stroke="#15294A" stroke-width="1.5" stroke-linecap="round" stroke-linejoin="round"/>
<path id="Stroke 987" fill-rule="evenodd" clip-rule="evenodd" d="M54.1967 87.7794L156.955 89.2963L170.076 18.3218L67.3201 16.8048L54.1967 87.7794Z" fill="#FEFEFF" stroke="#15294A" stroke-width="1.5" stroke-linecap="round" stroke-linejoin="round"/>
<path id="Stroke 988" fill-rule="evenodd" clip-rule="evenodd" d="M63.7815 32.3447L167.207 34.386L170.076 18.3218L67.3201 16.8048L63.7815 32.3447Z" fill="#4FE8B7" stroke="#15294A" stroke-width="1.5" stroke-linecap="round" stroke-linejoin="round"/>
<path id="Fill 984" fill-rule="evenodd" clip-rule="evenodd" d="M164.398 103.84L4.58376 101.481L4.70809 93.0592L164.522 95.4185L164.398 103.84Z" fill="#FEFEFF"/>
<path id="Stroke 986" fill-rule="evenodd" clip-rule="evenodd" d="M164.398 103.84L4.58376 101.481L4.70809 93.0592L164.522 95.4185L164.398 103.84Z" stroke="#15294A" stroke-width="1.5" stroke-linecap="round" stroke-linejoin="round"/>
<path id="Stroke 989" fill-rule="evenodd" clip-rule="evenodd" d="M14.4937 100.5L5.62572 100.353L5.75005 94.2493L14.618 94.3958L14.4937 100.5Z" fill="#4FE8B7"/>
</g>
<path id="Icon" d="M135.92 73.8505L153.475 57.5201L171.03 73.8505L190.75 55.4995" stroke="#15294A" stroke-width="1.5" stroke-linecap="round" stroke-linejoin="round"/>
<path id="Fill 69" fill-rule="evenodd" clip-rule="evenodd" d="M133.468 55.3641C133.318 55.7476 132.948 56 132.536 56H79.4655C78.7614 56 78.2778 55.2917 78.5342 54.6359C78.6841 54.2524 79.0538 54 79.4655 54H132.536C133.24 54 133.724 54.7083 133.468 55.3641Z" fill="#15294A"/>
<path id="Fill 70" fill-rule="evenodd" clip-rule="evenodd" d="M134.468 49.3641C134.318 49.7476 133.948 50 133.536 50H80.4655C79.7614 50 79.2778 49.2917 79.5342 48.6359C79.6841 48.2524 80.0538 48 80.4655 48H133.536C134.24 48 134.724 48.7083 134.468 49.3641Z" fill="#15294A"/>
<g id="Group 86">
<path id="Fill 58" fill-rule="evenodd" clip-rule="evenodd" d="M98.4718 65.9184H1.50177L15.0803 1.7251H112.2L98.4718 65.9184Z" fill="#FEFEFF"/>
<path id="Stroke 60" fill-rule="evenodd" clip-rule="evenodd" d="M99.5112 65.9184H1.46576L15.0803 1.7251H112.2L99.5112 65.9184Z" stroke="#15294A" stroke-width="1.5" stroke-linecap="round" stroke-linejoin="round"/>
<path id="Stroke 65" fill-rule="evenodd" clip-rule="evenodd" d="M31.4358 31.5058C30.9617 34.8242 28.1197 37.2891 24.7675 37.2891C20.6684 37.2891 17.5196 33.6585 18.0993 29.6005L18.216 28.7833C18.6901 25.4649 21.5321 23 24.8843 23C28.9834 23 32.1322 26.6306 31.5525 30.6885L31.4358 31.5058Z" fill="#9747FF" stroke="#15294A" stroke-width="1.5" stroke-linecap="round" stroke-linejoin="round"/>
<path id="Fill 62" fill-rule="evenodd" clip-rule="evenodd" d="M109.905 13.3771H12.5522L15.0801 1.72607H112.2L109.905 13.3771Z" fill="#4FE8B7"/>
<path id="Stroke 64" fill-rule="evenodd" clip-rule="evenodd" d="M109.905 13.3771H12.5522L15.0801 1.72607H112.2L109.905 13.3771Z" stroke="#15294A" stroke-width="1.5" stroke-linecap="round" stroke-linejoin="round"/>
<g id="Fill 70_2">
<path fill-rule="evenodd" clip-rule="evenodd" d="M23.1807 7.54957C23.0298 8.48376 22.1483 9.24069 21.2165 9.24069C20.2823 9.24069 19.6499 8.48376 19.8032 7.54957C19.9541 6.61777 20.8356 5.86084 21.7674 5.86084C22.7016 5.86084 23.334 6.61777 23.1807 7.54957Z" fill="#FEFEFF"/>
<path d="M23.1807 7.54957C23.0298 8.48376 22.1483 9.24069 21.2165 9.24069C20.2823 9.24069 19.6499 8.48376 19.8032 7.54957C19.9541 6.61777 20.8356 5.86084 21.7674 5.86084C22.7016 5.86084 23.334 6.61777 23.1807 7.54957" stroke="#15294A"/>
</g>
<g id="Fill 72">
<path fill-rule="evenodd" clip-rule="evenodd" d="M30.0956 7.54957C29.9423 8.48376 29.0608 9.24069 28.129 9.24069C27.1972 9.24069 26.5624 8.48376 26.7157 7.54957C26.869 6.61777 27.7505 5.86084 28.6823 5.86084C29.6141 5.86084 30.2465 6.61777 30.0956 7.54957Z" fill="#FEFEFF"/>
<path d="M30.0956 7.54957C29.9423 8.48376 29.0608 9.24069 28.129 9.24069C27.1972 9.24069 26.5624 8.48376 26.7157 7.54957C26.869 6.61777 27.7505 5.86084 28.6823 5.86084C29.6141 5.86084 30.2465 6.61777 30.0956 7.54957" stroke="#15294A"/>
</g>
<g id="Fill 74">
<path fill-rule="evenodd" clip-rule="evenodd" d="M37.1577 7.54957C37.0068 8.48376 36.1253 9.24069 35.1936 9.24069C34.2594 9.24069 33.627 8.48376 33.7803 7.54957C33.9312 6.61777 34.8127 5.86084 35.7445 5.86084C36.6787 5.86084 37.3111 6.61777 37.1577 7.54957Z" fill="#FEFEFF"/>
<path d="M37.1577 7.54957C37.0068 8.48376 36.1253 9.24069 35.1936 9.24069C34.2594 9.24069 33.627 8.48376 33.7803 7.54957C33.9312 6.61777 34.8127 5.86084 35.7445 5.86084C36.6787 5.86084 37.3111 6.61777 37.1577 7.54957" stroke="#15294A"/>
</g>
</g>
<path id="Fill 66" fill-rule="evenodd" clip-rule="evenodd" d="M99.4083 26.3918C99.2512 26.7606 98.8891 27 98.4882 27H40.5136C39.7967 27 39.3127 26.2678 39.5936 25.6082C39.7506 25.2394 40.1128 25 40.5136 25H98.4882C99.2051 25 99.6891 25.7322 99.4083 26.3918Z" fill="#15294A"/>
<path id="Fill 67" fill-rule="evenodd" clip-rule="evenodd" d="M76.636 39.2752C76.5131 39.7042 76.1209 40 75.6746 40H37.3273C36.6627 40 36.183 39.3638 36.3659 38.7248C36.4887 38.2958 36.881 38 37.3273 38H75.6746C76.3391 38 76.8188 38.6362 76.636 39.2752Z" fill="#15294A"/>
<path id="Fill 68" fill-rule="evenodd" clip-rule="evenodd" d="M77.6466 32.2689C77.5259 32.7011 77.1321 33 76.6834 33H39.3184C38.6565 33 38.1772 32.3686 38.3552 31.7311C38.4759 31.2989 38.8697 31 39.3184 31H76.6834C77.3453 31 77.8246 31.6314 77.6466 32.2689Z" fill="#15294A"/>
</g>
</g>
<path id="Ellipse 7" d="M136.981 76.2106C138.899 76.2106 140.453 74.6562 140.453 72.7388C140.453 70.8214 138.899 69.2671 136.981 69.2671C135.064 69.2671 133.51 70.8214 133.51 72.7388C133.51 74.6562 135.064 76.2106 136.981 76.2106Z" fill="#FEFEFF" stroke="#15294A" stroke-width="1.5"/>
<path id="Ellipse 4" d="M153.611 62.3531C155.528 62.3531 157.083 60.7988 157.083 58.8814C157.083 56.964 155.528 55.4097 153.611 55.4097C151.694 55.4097 150.139 56.964 150.139 58.8814C150.139 60.7988 151.694 62.3531 153.611 62.3531Z" fill="#FEFEFF" stroke="#15294A" stroke-width="1.5"/>
<path id="Ellipse 5" d="M170.609 75.9615C172.527 75.9615 174.081 74.4072 174.081 72.4898C174.081 70.5724 172.527 69.0181 170.609 69.0181C168.692 69.0181 167.138 70.5724 167.138 72.4898C167.138 74.4072 168.692 75.9615 170.609 75.9615Z" fill="#FEFEFF" stroke="#15294A" stroke-width="1.5"/>
<path id="Ellipse 6" d="M189.813 59.193C191.73 59.193 193.284 57.6386 193.284 55.7212C193.284 53.8039 191.73 52.2495 189.813 52.2495C187.895 52.2495 186.341 53.8039 186.341 55.7212C186.341 57.6386 187.895 59.193 189.813 59.193Z" fill="#FEFEFF" stroke="#15294A" stroke-width="1.5"/>
</g>
</svg>
