<svg width="168" height="168" viewBox="0 0 168 168" fill="none" xmlns="http://www.w3.org/2000/svg">
<g id="Group 1012">
<g id="Group 25">
<path id="Fill 23" fill-rule="evenodd" clip-rule="evenodd" d="M1.00236 83.998C1.00236 129.836 38.1612 166.996 84.0004 166.996C129.839 166.996 166.997 129.836 166.997 83.998C166.997 38.1598 129.839 1 84.0004 1.00001C38.1612 1.00001 1.00235 38.1599 1.00236 83.998Z" fill="#FEFEFF"/>
</g>
<g id="Group 59">
<g id="Group 28">
<mask id="mask0_1008_42560" style="mask-type:luminance" maskUnits="userSpaceOnUse" x="1" y="1" width="166" height="166">
<path id="Clip 27" fill-rule="evenodd" clip-rule="evenodd" d="M166.997 83.998C166.997 129.835 129.839 166.995 84.0005 166.995C38.1623 166.995 1.00351 129.835 1.0035 83.998C1.0035 38.1588 38.1623 1.00001 84.0005 1.00001C129.839 1 166.997 38.1588 166.997 83.998Z" fill="white"/>
</mask>
<g mask="url(#mask0_1008_42560)">
<path id="Fill 26" fill-rule="evenodd" clip-rule="evenodd" d="M-4.56631 83.5469C-4.5663 129.385 32.5925 166.545 78.4317 166.545C124.27 166.545 161.429 129.385 161.429 83.5469C161.429 37.7087 124.27 0.548831 78.4317 0.548835C32.5925 0.548839 -4.56631 37.7087 -4.56631 83.5469Z" fill="#FEFEFF"/>
</g>
</g>
<g id="Group 31">
<mask id="mask1_1008_42560" style="mask-type:luminance" maskUnits="userSpaceOnUse" x="1" y="1" width="166" height="166">
<path id="Clip 30" fill-rule="evenodd" clip-rule="evenodd" d="M166.997 83.998C166.997 129.835 129.839 166.995 84.0005 166.995C38.1623 166.995 1.00351 129.835 1.0035 83.998C1.0035 38.1588 38.1623 1.00001 84.0005 1.00001C129.839 1 166.997 38.1588 166.997 83.998Z" fill="white"/>
</mask>
<g mask="url(#mask1_1008_42560)">
<path id="Stroke 29" d="M80.6181 155.109C85.9336 155.109 91.0998 154.472 96.0453 153.27" stroke="#FEFEFF" stroke-width="2.1018" stroke-linecap="round" stroke-linejoin="round"/>
</g>
</g>
<g id="Group 34">
<mask id="mask2_1008_42560" style="mask-type:luminance" maskUnits="userSpaceOnUse" x="1" y="1" width="166" height="166">
<path id="Clip 33" fill-rule="evenodd" clip-rule="evenodd" d="M166.997 83.998C166.997 129.835 129.839 166.995 84.0005 166.995C38.1623 166.995 1.00351 129.835 1.0035 83.998C1.0035 38.1588 38.1623 1.00001 84.0005 1.00001C129.839 1 166.997 38.1588 166.997 83.998Z" fill="white"/>
</mask>
<g mask="url(#mask2_1008_42560)">
<path id="Stroke 32" d="M107.104 149.494C110.813 147.84 114.34 145.85 117.643 143.562C122.145 140.445 126.234 136.774 129.812 132.65" stroke="#FEFEFF" stroke-width="2.1018" stroke-linecap="round" stroke-linejoin="round"/>
</g>
</g>
<g id="Group 37">
<mask id="mask3_1008_42560" style="mask-type:luminance" maskUnits="userSpaceOnUse" x="1" y="1" width="166" height="166">
<path id="Clip 36" fill-rule="evenodd" clip-rule="evenodd" d="M166.997 83.998C166.997 129.835 129.839 166.995 84.0005 166.995C38.1623 166.995 1.00351 129.835 1.0035 83.998C1.0035 38.1588 38.1623 1.00001 84.0005 1.00001C129.839 1 166.997 38.1588 166.997 83.998Z" fill="white"/>
</mask>
<g mask="url(#mask3_1008_42560)">
<g id="Fill 35">
<path fill-rule="evenodd" clip-rule="evenodd" d="M99.2276 20.0793C96.9924 18.3495 94.5963 16.9738 91.6916 16.7889C89.0602 16.6207 88.3046 17.4152 88.5043 20.0719C88.7186 22.9388 87.8233 24.1095 85.0258 24.3323C82.243 24.5529 79.4539 24.4678 76.6806 24.08C74.3255 23.7511 72.3677 22.7633 71.2264 20.5963C70.2764 18.7909 69.0962 18.5155 67.2603 19.4119C61.5928 22.179 55.9295 21.7523 50.4259 18.9096C46.7288 16.998 43.0129 15.222 38.7515 15.1316C34.8379 15.0486 33.9614 16.0554 35.0922 19.7262C35.9823 22.6182 34.4869 24.3049 32.611 25.9958C30.2707 28.1092 30.2423 28.7334 32.9547 30.3634C36.0506 32.2235 36.8882 34.7488 36.1463 38.1411C35.6103 40.5928 35.2499 43.0919 34.9819 45.5878C34.6708 48.4851 36.0906 50.8927 38.2165 51.4308C40.2732 51.952 42.5515 50.7298 43.7075 48.07C44.5577 46.1132 44.9434 43.9589 45.5623 41.9002C46.732 38.0034 49.4822 37.1469 52.3575 39.9528C55.8496 43.3588 58.0355 48.0185 54.2218 53.1469C52.162 55.9171 51.2204 59.0015 51.9749 62.522C52.5277 65.0988 53.8855 66.6258 56.5327 67.147C60.8561 67.9972 60.9517 68.2242 60.2392 72.7294C60.1699 73.1718 60.1362 73.6216 60.0595 74.064C59.0475 79.9512 59.3806 80.6069 64.8548 82.6436C66.7002 83.3298 67.3328 84.3671 66.8504 86.3575C66.3239 88.5286 66.1274 90.7807 65.8122 93.0013C65.6829 93.9166 65.7123 94.9286 66.5772 95.4099C67.3528 95.8418 68.1798 95.2523 68.803 94.7846C70.021 93.8703 71.1728 92.8604 72.2941 91.8263C74.4085 89.878 76.3926 87.7793 78.5953 85.9381C80.8337 84.0665 82.6255 84.1863 84.8934 86.0411C87.4323 88.1188 89.1821 90.8616 91.0905 93.471C91.5561 94.1078 91.9817 95.0579 92.896 94.8603C93.7398 94.6785 93.9416 93.697 94.1844 92.9329C94.5932 91.6519 94.8895 90.333 95.3404 89.0677C96.0718 87.0143 97.0029 85.0796 99.1824 84.1327C100.917 83.0198 101.997 84.0392 102.973 85.316C106.776 90.2826 108.051 90.6031 114.031 87.8991C114.649 90.5768 115.299 93.1852 116.678 95.6085C117.593 97.2164 116.852 99.0597 115.736 100.648C112.125 105.787 112.37 108.168 116.935 112.531C118.139 113.681 118.98 115.008 119.626 116.512C120.406 118.33 121.252 120.124 122.594 121.615C125.084 124.379 127.974 124.596 130.55 121.946C134.059 118.335 136.164 114.199 134.077 109.031C133.401 107.355 133.69 106.038 135.129 105.005C137.772 103.105 138.581 100.478 138.075 97.4129C137.815 95.8397 138.307 95.3647 139.868 95.3689C142.833 95.3752 145.807 95.6117 148.764 95.1503C154.081 94.3212 157.886 90.1071 158.038 84.8484C158.196 79.3742 154.717 74.642 149.321 73.8412C143.893 73.0362 138.376 73.2685 132.904 73.7845C131.36 73.9306 129.788 74.4749 128.752 75.5731C126.954 77.4752 124.797 77.2377 122.36 77.2535C124.664 71.9769 127.85 67.5663 131.951 63.8577C134.327 61.7075 136.798 62.0585 138.995 64.5944C140.231 66.0215 141.282 67.6104 142.549 69.005C144.454 71.1057 146.788 72.3731 149.739 71.8309C152.412 71.3401 153.43 68.9934 151.508 67.1428C146.564 62.3791 144.326 56.3038 142.359 49.9994C140.203 43.0919 135.828 38.5488 128.387 37.4485C125.334 36.9977 122.504 37.8636 119.683 38.8179C116.202 39.9959 112.69 40.4373 109.082 39.399C104.845 38.1789 103.239 35.7986 103.733 31.429C104.25 26.8492 102.248 23.2614 99.2276 20.0793Z" fill="#4FE8B7"/>
<path d="M99.2276 20.0793C96.9924 18.3495 94.5963 16.9738 91.6916 16.7889C89.0602 16.6207 88.3046 17.4152 88.5042 20.0719C88.7186 22.9388 87.8233 24.1095 85.0258 24.3323C82.243 24.5529 79.4539 24.4678 76.6806 24.08C74.3255 23.7511 72.3677 22.7633 71.2264 20.5963C70.2764 18.7909 69.0962 18.5155 67.2603 19.4119C61.5928 22.179 55.9295 21.7523 50.4259 18.9096C46.7288 16.998 43.0129 15.222 38.7515 15.1316C34.8379 15.0486 33.9615 16.0554 35.0922 19.7262C35.9823 22.6182 34.4869 24.3049 32.611 25.9958C30.2707 28.1092 30.2423 28.7334 32.9547 30.3634C36.0506 32.2235 36.8882 34.7488 36.1463 38.1411C35.6103 40.5928 35.2499 43.0919 34.9819 45.5878C34.6708 48.4851 36.0906 50.8927 38.2165 51.4308C40.2732 51.952 42.5515 50.7298 43.7075 48.07C44.5577 46.1132 44.9434 43.9589 45.5623 41.9002C46.732 38.0034 49.4822 37.1469 52.3575 39.9528C55.8496 43.3588 58.0355 48.0185 54.2218 53.1469C52.162 55.9171 51.2204 59.0015 51.9749 62.522C52.5277 65.0988 53.8855 66.6258 56.5327 67.147C60.8561 67.9972 60.9517 68.2242 60.2392 72.7294C60.1699 73.1718 60.1362 73.6216 60.0595 74.064C59.0475 79.9512 59.3806 80.6069 64.8548 82.6436C66.7002 83.3298 67.3328 84.3671 66.8504 86.3575C66.3239 88.5286 66.1274 90.7807 65.8122 93.0013C65.6829 93.9166 65.7123 94.9286 66.5772 95.4099C67.3528 95.8418 68.1798 95.2523 68.803 94.7846C70.021 93.8703 71.1728 92.8604 72.2941 91.8263C74.4085 89.878 76.3926 87.7793 78.5953 85.9381C80.8337 84.0665 82.6255 84.1863 84.8934 86.0411C87.4323 88.1188 89.1821 90.8616 91.0905 93.471C91.5561 94.1078 91.9817 95.0579 92.896 94.8603C93.7398 94.6785 93.9416 93.6969 94.1844 92.9329C94.5932 91.6519 94.8895 90.333 95.3404 89.0677C96.0718 87.0143 97.0029 85.0796 99.1824 84.1327C100.917 83.0198 101.997 84.0392 102.973 85.316C106.776 90.2826 108.051 90.6031 114.031 87.8991C114.649 90.5768 115.299 93.1852 116.678 95.6085C117.593 97.2164 116.852 99.0597 115.736 100.648C112.125 105.787 112.37 108.168 116.935 112.531C118.139 113.681 118.98 115.008 119.626 116.512C120.406 118.33 121.252 120.124 122.594 121.615C125.084 124.379 127.974 124.596 130.55 121.946C134.059 118.335 136.164 114.199 134.077 109.031C133.401 107.355 133.69 106.038 135.129 105.005C137.772 103.105 138.581 100.478 138.075 97.4129C137.815 95.8397 138.307 95.3647 139.868 95.3689C142.833 95.3752 145.807 95.6117 148.764 95.1503C154.081 94.3212 157.886 90.1071 158.038 84.8484C158.196 79.3742 154.717 74.642 149.321 73.8412C143.893 73.0362 138.376 73.2685 132.904 73.7845C131.36 73.9306 129.788 74.4749 128.752 75.5731C126.954 77.4752 124.797 77.2377 122.36 77.2535C124.664 71.9769 127.85 67.5663 131.951 63.8577C134.327 61.7075 136.798 62.0585 138.995 64.5944C140.231 66.0215 141.282 67.6104 142.549 69.005C144.454 71.1057 146.788 72.3731 149.739 71.8309C152.412 71.3401 153.43 68.9934 151.508 67.1428C146.564 62.3791 144.326 56.3038 142.359 49.9994C140.203 43.0919 135.828 38.5488 128.387 37.4485C125.334 36.9977 122.504 37.8636 119.683 38.8179C116.202 39.9959 112.69 40.4373 109.082 39.399C104.845 38.1789 103.239 35.7986 103.733 31.429C104.25 26.8492 102.248 23.2614 99.2276 20.0793" stroke="#15294A"/>
</g>
</g>
</g>
<g id="Group 40">
<mask id="mask4_1008_42560" style="mask-type:luminance" maskUnits="userSpaceOnUse" x="1" y="1" width="166" height="166">
<path id="Clip 39" fill-rule="evenodd" clip-rule="evenodd" d="M166.997 83.998C166.997 129.835 129.839 166.995 84.0005 166.995C38.1623 166.995 1.00351 129.835 1.0035 83.998C1.0035 38.1588 38.1623 1.00001 84.0005 1.00001C129.839 1 166.997 38.1588 166.997 83.998Z" fill="white"/>
</mask>
<g mask="url(#mask4_1008_42560)">
<g id="Fill 38">
<path fill-rule="evenodd" clip-rule="evenodd" d="M111.475 122.592C109.306 122.631 107.337 124.622 107.338 126.774C107.339 129.051 109.47 131.07 111.744 130.948C113.93 130.83 115.834 128.784 115.754 126.639C115.673 124.492 113.625 122.553 111.475 122.592Z" fill="#4FE8B7"/>
<path d="M111.475 122.592C109.306 122.631 107.337 124.622 107.338 126.774C107.339 129.051 109.47 131.07 111.744 130.948C113.93 130.83 115.834 128.784 115.754 126.639C115.673 124.492 113.625 122.553 111.475 122.592" stroke="#15294A"/>
</g>
</g>
</g>
<g id="Group 43">
<mask id="mask5_1008_42560" style="mask-type:luminance" maskUnits="userSpaceOnUse" x="1" y="1" width="166" height="166">
<path id="Clip 42" fill-rule="evenodd" clip-rule="evenodd" d="M166.997 83.998C166.997 129.835 129.839 166.995 84.0005 166.995C38.1623 166.995 1.00351 129.835 1.0035 83.998C1.0035 38.1588 38.1623 1.00001 84.0005 1.00001C129.839 1 166.997 38.1588 166.997 83.998Z" fill="white"/>
</mask>
<g mask="url(#mask5_1008_42560)">
<g id="Fill 41">
<path fill-rule="evenodd" clip-rule="evenodd" d="M35.3057 126.549C35.726 130.781 37.0796 134.562 40.5854 137.297C42.3772 138.695 43.9956 138.569 44.9865 136.452C47.5402 130.996 51.9319 129.325 57.6026 129.986C58.8427 130.13 60.1195 130.119 61.369 130.027C64.134 129.822 66.2358 127.858 66.7108 125.163C67.2299 122.214 66.3766 120.485 63.392 119.23C59.84 117.737 57.0288 115.234 54.0905 112.883C52.0591 111.257 50.0708 109.568 47.7199 108.395C46.0017 107.538 44.5851 107.722 43.7286 109.632C41.7414 114.066 39.3169 118.238 36.4606 122.173C35.5474 123.43 35.2794 124.968 35.3057 126.549Z" fill="#4FE8B7"/>
<path d="M35.3057 126.549C35.726 130.781 37.0796 134.562 40.5854 137.297C42.3772 138.695 43.9955 138.569 44.9865 136.452C47.5402 130.996 51.9319 129.325 57.6026 129.986C58.8427 130.13 60.1195 130.119 61.369 130.027C64.134 129.822 66.2358 127.858 66.7108 125.163C67.2299 122.214 66.3766 120.485 63.392 119.23C59.84 117.737 57.0288 115.234 54.0905 112.883C52.0591 111.257 50.0708 109.568 47.7199 108.395C46.0017 107.538 44.5851 107.722 43.7286 109.632C41.7414 114.066 39.3169 118.238 36.4606 122.173C35.5474 123.43 35.2794 124.968 35.3057 126.549" stroke="#15294A"/>
</g>
</g>
</g>
<g id="Group 46">
<mask id="mask6_1008_42560" style="mask-type:luminance" maskUnits="userSpaceOnUse" x="1" y="1" width="166" height="166">
<path id="Clip 45" fill-rule="evenodd" clip-rule="evenodd" d="M166.997 83.998C166.997 129.835 129.839 166.995 84.0005 166.995C38.1623 166.995 1.00351 129.835 1.0035 83.998C1.0035 38.1588 38.1623 1.00001 84.0005 1.00001C129.839 1 166.997 38.1588 166.997 83.998Z" fill="white"/>
</mask>
<g mask="url(#mask6_1008_42560)">
<g id="Fill 44">
<path fill-rule="evenodd" clip-rule="evenodd" d="M35.8545 68.0887C36.3915 73.3832 39.4044 78.2131 45.0036 81.328C47.4354 82.6805 49.6707 82.1771 50.9633 80.2056C52.2948 78.1753 51.7998 75.7078 49.367 74.1976C46.2132 72.2398 44.5507 69.5631 44.0799 65.9197C43.7058 63.016 41.8068 61.4176 39.5053 61.6877C37.0073 61.9799 35.6821 63.8935 35.8545 68.0887Z" fill="#4FE8B7"/>
<path d="M35.8545 68.0887C36.3915 73.3832 39.4044 78.2131 45.0036 81.328C47.4354 82.6805 49.6707 82.1771 50.9633 80.2056C52.2948 78.1753 51.7998 75.7078 49.367 74.1976C46.2132 72.2398 44.5507 69.5631 44.0799 65.9197C43.7058 63.016 41.8068 61.4176 39.5053 61.6877C37.0073 61.9799 35.6821 63.8935 35.8545 68.0887" stroke="#15294A"/>
</g>
</g>
</g>
<g id="Group 49">
<mask id="mask7_1008_42560" style="mask-type:luminance" maskUnits="userSpaceOnUse" x="1" y="1" width="166" height="166">
<path id="Clip 48" fill-rule="evenodd" clip-rule="evenodd" d="M166.997 83.998C166.997 129.835 129.839 166.995 84.0005 166.995C38.1623 166.995 1.00351 129.835 1.0035 83.998C1.0035 38.1588 38.1623 1.00001 84.0005 1.00001C129.839 1 166.997 38.1588 166.997 83.998Z" fill="white"/>
</mask>
<g mask="url(#mask7_1008_42560)">
<g id="Fill 47">
<path fill-rule="evenodd" clip-rule="evenodd" d="M46.2113 89.2581C46.3973 91.6101 48.6441 93.3934 51.1169 93.1496C53.555 92.909 55.3394 90.9291 55.1555 88.6675C54.959 86.2641 52.8172 84.5627 50.2593 84.7781C47.8549 84.9799 46.0326 86.9976 46.2113 89.2581Z" fill="#4FE8B7"/>
<path d="M46.2113 89.2581C46.3973 91.6101 48.6441 93.3934 51.1169 93.1496C53.555 92.909 55.3394 90.9291 55.1555 88.6675C54.959 86.2641 52.8172 84.5627 50.2593 84.7781C47.8549 84.9799 46.0326 86.9976 46.2113 89.2581" stroke="#15294A"/>
</g>
</g>
</g>
<g id="Group 52">
<mask id="mask8_1008_42560" style="mask-type:luminance" maskUnits="userSpaceOnUse" x="1" y="1" width="166" height="166">
<path id="Clip 51" fill-rule="evenodd" clip-rule="evenodd" d="M166.997 83.998C166.997 129.835 129.839 166.995 84.0005 166.995C38.1623 166.995 1.00351 129.835 1.0035 83.998C1.0035 38.1588 38.1623 1.00001 84.0005 1.00001C129.839 1 166.997 38.1588 166.997 83.998Z" fill="white"/>
</mask>
<g mask="url(#mask8_1008_42560)">
<g id="Fill 50">
<path fill-rule="evenodd" clip-rule="evenodd" d="M55.5027 102.31C55.4774 104.526 57.3459 106.404 59.6211 106.449C61.9089 106.495 63.8247 104.737 63.9193 102.505C64.0181 100.172 62.0666 98.1961 59.6831 98.215C57.41 98.2318 55.5289 100.075 55.5027 102.31Z" fill="#4FE8B7"/>
<path d="M55.5027 102.31C55.4774 104.526 57.3459 106.404 59.6211 106.449C61.9089 106.495 63.8247 104.737 63.9193 102.505C64.0181 100.172 62.0666 98.1961 59.6831 98.215C57.41 98.2318 55.5289 100.075 55.5027 102.31" stroke="#15294A"/>
</g>
</g>
</g>
<g id="Group 55">
<mask id="mask9_1008_42560" style="mask-type:luminance" maskUnits="userSpaceOnUse" x="1" y="1" width="166" height="166">
<path id="Clip 54" fill-rule="evenodd" clip-rule="evenodd" d="M166.997 83.998C166.997 129.835 129.839 166.995 84.0005 166.995C38.1623 166.995 1.00351 129.835 1.0035 83.998C1.0035 38.1588 38.1623 1.00001 84.0005 1.00001C129.839 1 166.997 38.1588 166.997 83.998Z" fill="white"/>
</mask>
<g mask="url(#mask9_1008_42560)">
<g id="Fill 53">
<path fill-rule="evenodd" clip-rule="evenodd" d="M73.5086 111.738C75.7565 111.683 77.5388 109.825 77.5272 107.549C77.5157 105.274 75.7081 103.46 73.4361 103.445C71.0369 103.432 69.2072 105.336 69.2934 107.756C69.3754 110.023 71.2491 111.793 73.5086 111.738Z" fill="#4FE8B7"/>
<path d="M73.5086 111.738C75.7565 111.683 77.5388 109.825 77.5272 107.549C77.5157 105.274 75.7081 103.46 73.4361 103.445C71.0369 103.432 69.2072 105.336 69.2934 107.756C69.3754 110.023 71.2491 111.793 73.5086 111.738" stroke="#15294A"/>
</g>
</g>
</g>
<g id="Group 58">
<mask id="mask10_1008_42560" style="mask-type:luminance" maskUnits="userSpaceOnUse" x="1" y="1" width="166" height="166">
<path id="Clip 57" fill-rule="evenodd" clip-rule="evenodd" d="M166.997 83.998C166.997 129.835 129.839 166.995 84.0005 166.995C38.1623 166.995 1.00351 129.835 1.0035 83.9981C1.0035 38.1588 38.1623 1.00001 84.0005 1.00001C129.839 1 166.997 38.1588 166.997 83.998Z" fill="white"/>
</mask>
<g mask="url(#mask10_1008_42560)">
<g id="Fill 56">
<path fill-rule="evenodd" clip-rule="evenodd" d="M48.6398 3.21603C48.6398 7.46483 59.2382 10.9097 72.3114 10.9097C85.3846 10.9097 95.9829 7.46482 95.9829 3.21603C95.9829 -1.03276 85.3846 -4.47656 72.3114 -4.47656C59.2382 -4.47656 48.6398 -1.03276 48.6398 3.21603Z" fill="#4FE8B7"/>
<path d="M48.6398 3.21603C48.6398 7.46483 59.2382 10.9097 72.3114 10.9097C85.3846 10.9097 95.9829 7.46482 95.9829 3.21603C95.9829 -1.03276 85.3846 -4.47656 72.3114 -4.47656C59.2382 -4.47656 48.6398 -1.03276 48.6398 3.21603" stroke="#15294A"/>
</g>
</g>
</g>
</g>
<g id="Group 84">
<path id="Stroke 60" fill-rule="evenodd" clip-rule="evenodd" d="M1.00261 84.0019C1.00261 129.84 38.1614 167 84.0007 167C129.839 167 166.998 129.84 166.998 84.0019C166.998 38.1637 129.839 1.00391 84.0006 1.00391C38.1614 1.00392 1.0026 38.1638 1.00261 84.0019Z" stroke="#15294A" stroke-width="1.31363" stroke-linecap="round" stroke-linejoin="round"/>
<path id="Fill 62" fill-rule="evenodd" clip-rule="evenodd" d="M129.811 90.3079C129.811 93.49 132.39 96.0689 135.572 96.0689C138.755 96.0689 141.333 93.49 141.333 90.3079C141.333 87.1268 138.755 84.5469 135.572 84.5469C132.39 84.5469 129.811 87.1268 129.811 90.3079Z" fill="#9747FF"/>
<path id="Fill 64" fill-rule="evenodd" clip-rule="evenodd" d="M133.656 74.1644C135.978 74.1644 137.86 72.2822 137.86 69.9608C137.86 67.6383 135.978 65.7562 133.656 65.7562C131.334 65.7562 129.452 67.6383 129.452 69.9608C129.452 72.2822 131.334 74.1644 133.656 74.1644ZM123.083 69.9618C123.083 64.1219 127.816 59.3887 133.656 59.3887L137.129 59.3887L137.827 60.2462C140.968 61.5977 143.324 64.4246 144.017 67.8568L145.729 69.9618L143.338 75.3413C143.009 76.2977 142.569 77.337 141.964 78.4341L137.129 89.312L133.656 89.312C133.656 89.312 129.376 84.9266 125.944 79.4483C122.686 74.2463 123.083 69.9618 123.083 69.9618Z" fill="#4FE8B7"/>
<g id="Stroke 66">
<path fill-rule="evenodd" clip-rule="evenodd" d="M133.656 74.1644C135.978 74.1644 137.86 72.2822 137.86 69.9608C137.86 67.6383 135.978 65.7562 133.656 65.7562C131.334 65.7562 129.452 67.6383 129.452 69.9608C129.452 72.2822 131.334 74.1644 133.656 74.1644ZM123.083 69.9618C123.083 64.1219 127.816 59.3887 133.656 59.3887L137.129 59.3887L137.827 60.2462C140.968 61.5977 143.324 64.4246 144.017 67.8568L145.729 69.9618L143.338 75.3413C143.009 76.2977 142.569 77.337 141.964 78.4341L137.129 89.312L133.656 89.312C133.656 89.312 129.376 84.9266 125.944 79.4483C122.686 74.2463 123.083 69.9618 123.083 69.9618Z" fill="#18489A"/>
<path d="M123.083 69.9618L123.74 69.9618C123.74 69.982 123.739 70.0023 123.737 70.0224L123.083 69.9618ZM133.656 59.3887L133.656 58.7319L133.656 59.3887ZM137.129 59.3887L137.129 58.7319C137.327 58.7319 137.514 58.8208 137.639 58.9741L137.129 59.3887ZM137.827 60.2462L137.568 60.8495C137.47 60.8077 137.385 60.7429 137.318 60.6608L137.827 60.2462ZM144.017 67.8568L143.507 68.2712C143.44 68.1887 143.394 68.0911 143.373 67.9867L144.017 67.8568ZM145.729 69.9618L146.239 69.5474C146.395 69.7392 146.43 70.0025 146.329 70.2285L145.729 69.9618ZM143.338 75.3413L142.717 75.1277C142.723 75.1097 142.73 75.092 142.738 75.0746L143.338 75.3413ZM141.964 78.4341L141.363 78.1674C141.371 78.1502 141.379 78.1333 141.388 78.1169L141.964 78.4341ZM137.129 89.312L137.73 89.5788C137.624 89.816 137.389 89.9688 137.129 89.9688L137.129 89.312ZM133.656 89.312L133.656 89.9688C133.479 89.9688 133.31 89.8974 133.186 89.7708L133.656 89.312ZM125.944 79.4483L125.387 79.797L125.387 79.7969L125.944 79.4483ZM133.656 73.5076C135.615 73.5076 137.203 71.9195 137.203 69.9608L138.517 69.9608C138.517 72.645 136.34 74.8212 133.656 74.8212L133.656 73.5076ZM137.203 69.9608C137.203 68.001 135.615 66.413 133.656 66.413L133.656 65.0993C136.341 65.0993 138.517 67.2757 138.517 69.9608L137.203 69.9608ZM133.656 66.413C131.697 66.413 130.108 68.0011 130.108 69.9608L128.795 69.9608C128.795 67.2756 130.971 65.0993 133.656 65.0993L133.656 66.413ZM130.108 69.9608C130.108 71.9194 131.696 73.5076 133.656 73.5076L133.656 74.8212C130.971 74.8212 128.795 72.6451 128.795 69.9608L130.108 69.9608ZM122.426 69.9618C122.426 63.7592 127.454 58.7319 133.656 58.7319L133.656 60.0455C128.179 60.0455 123.74 64.4847 123.74 69.9618L122.426 69.9618ZM133.656 58.7319L137.129 58.7319L137.129 60.0455L133.656 60.0455L133.656 58.7319ZM137.639 58.9741L138.337 59.8317L137.318 60.6608L136.62 59.8032L137.639 58.9741ZM138.087 59.6429C141.422 61.0778 143.925 64.0792 144.661 67.7269L143.373 67.9867C142.724 64.7699 140.515 62.1175 137.568 60.8495L138.087 59.6429ZM144.527 67.4424L146.239 69.5474L145.219 70.3762L143.507 68.2712L144.527 67.4424ZM146.329 70.2285L143.938 75.6081L142.738 75.0746L145.129 69.695L146.329 70.2285ZM143.959 75.555C143.619 76.5438 143.164 77.6182 142.539 78.7514L141.388 78.1169C141.974 77.0558 142.399 76.0515 142.717 75.1277L143.959 75.555ZM142.564 78.7009L137.73 89.5788L136.529 89.0453L141.363 78.1674L142.564 78.7009ZM137.129 89.9688L133.656 89.9688L133.656 88.6552L137.129 88.6552L137.129 89.9688ZM133.656 89.312C133.186 89.7708 133.186 89.7707 133.186 89.7706C133.186 89.7706 133.186 89.7705 133.186 89.7704C133.186 89.7702 133.185 89.7699 133.185 89.7696C133.184 89.7689 133.183 89.768 133.182 89.7668C133.18 89.7644 133.177 89.7609 133.172 89.7564C133.163 89.7473 133.151 89.7341 133.134 89.7168C133.101 89.6822 133.052 89.6312 132.989 89.5646C132.863 89.4315 132.68 89.2361 132.449 88.9848C131.989 88.4823 131.341 87.756 130.584 86.8575C129.073 85.0621 127.125 82.5707 125.387 79.797L126.5 79.0995C128.195 81.8042 130.102 84.2446 131.59 86.0116C132.332 86.8942 132.968 87.6066 133.418 88.0976C133.643 88.3431 133.821 88.533 133.942 88.6612C134.003 88.7252 134.05 88.7738 134.081 88.8061C134.096 88.8222 134.108 88.8343 134.115 88.8422C134.119 88.8461 134.122 88.849 134.124 88.8509C134.125 88.8518 134.125 88.8525 134.126 88.8529C134.126 88.8531 134.126 88.8532 134.126 88.8533C134.126 88.8533 134.126 88.8533 134.126 88.8533C134.126 88.8533 134.126 88.8532 133.656 89.312ZM125.387 79.7969C123.708 77.1155 122.966 74.6626 122.645 72.8699C122.485 71.9741 122.43 71.2433 122.415 70.7311C122.408 70.475 122.411 70.2733 122.416 70.1328C122.418 70.0626 122.421 70.0076 122.424 69.9687C122.425 69.9493 122.426 69.9339 122.427 69.9226C122.428 69.9169 122.428 69.9123 122.428 69.9087C122.429 69.9069 122.429 69.9054 122.429 69.9042C122.429 69.9035 122.429 69.903 122.429 69.9025C122.429 69.9022 122.429 69.9019 122.429 69.9018C122.429 69.9014 122.429 69.9011 123.083 69.9618C123.737 70.0224 123.737 70.0222 123.737 70.0219C123.737 70.0219 123.737 70.0216 123.737 70.0215C123.737 70.0213 123.737 70.0211 123.737 70.021C123.737 70.0208 123.737 70.0208 123.737 70.0211C123.737 70.0217 123.737 70.0233 123.737 70.0259C123.736 70.0311 123.736 70.0404 123.735 70.0536C123.733 70.08 123.731 70.1222 123.729 70.1792C123.725 70.2934 123.722 70.4671 123.728 70.6939C123.741 71.1477 123.791 71.8132 123.938 72.6386C124.233 74.2888 124.922 76.5791 126.5 79.0996L125.387 79.7969Z" fill="#15294A"/>
</g>
<path id="Fill 68" fill-rule="evenodd" clip-rule="evenodd" d="M137.129 74.1644C139.452 74.1644 141.334 72.2822 141.334 69.9608C141.334 67.6383 139.452 65.7562 137.129 65.7562C134.808 65.7562 132.926 67.6383 132.926 69.9608C132.926 72.2822 134.808 74.1644 137.129 74.1644ZM126.558 69.9618C126.558 64.1219 131.291 59.3887 137.13 59.3887C142.969 59.3887 147.703 64.1219 147.703 69.9618C147.703 69.9618 148.101 74.2463 144.842 79.4483C141.41 84.9266 137.13 89.312 137.13 89.312C137.13 89.312 132.85 84.9266 129.418 79.4483C126.159 74.2463 126.558 69.9618 126.558 69.9618Z" fill="#FEFEFF"/>
<path id="Stroke 70" d="M126.558 69.9618L127.214 69.9618C127.214 69.9821 127.213 70.0024 127.212 70.0226L126.558 69.9618ZM147.703 69.9618L147.049 70.0226C147.047 70.0024 147.046 69.9821 147.046 69.9618L147.703 69.9618ZM144.842 79.4483L145.399 79.797L145.399 79.797L144.842 79.4483ZM137.13 89.312L137.6 89.7708C137.476 89.8974 137.307 89.9688 137.13 89.9688C136.953 89.9688 136.783 89.8974 136.66 89.7707L137.13 89.312ZM129.418 79.4483L128.861 79.797L128.861 79.797L129.418 79.4483ZM137.129 73.5076C139.089 73.5076 140.677 71.9194 140.677 69.9608L141.991 69.9608C141.991 72.6451 139.814 74.8212 137.129 74.8212L137.129 73.5076ZM140.677 69.9608C140.677 68.0011 139.089 66.413 137.129 66.413L137.129 65.0993C139.814 65.0993 141.991 67.2756 141.991 69.9608L140.677 69.9608ZM137.129 66.413C135.171 66.413 133.582 68.001 133.582 69.9608L132.269 69.9608C132.269 67.2757 134.445 65.0993 137.129 65.0993L137.129 66.413ZM133.582 69.9608C133.582 71.9195 135.171 73.5076 137.129 73.5076L137.129 74.8212C134.445 74.8212 132.269 72.645 132.269 69.9608L133.582 69.9608ZM125.901 69.9618C125.901 63.7592 130.928 58.7319 137.13 58.7319L137.13 60.0455C131.654 60.0455 127.214 64.4846 127.214 69.9618L125.901 69.9618ZM137.13 58.7319C143.332 58.7319 148.36 63.7592 148.36 69.9618L147.046 69.9618C147.046 64.4847 142.607 60.0455 137.13 60.0455L137.13 58.7319ZM147.703 69.9618C148.357 69.901 148.357 69.9013 148.357 69.9016C148.357 69.9017 148.357 69.902 148.357 69.9023C148.357 69.9028 148.357 69.9034 148.357 69.904C148.357 69.9053 148.357 69.9068 148.357 69.9086C148.358 69.9121 148.358 69.9168 148.359 69.9224C148.359 69.9337 148.361 69.9491 148.362 69.9686C148.364 70.0075 148.367 70.0625 148.37 70.1327C148.375 70.2732 148.378 70.4748 148.371 70.731C148.356 71.2432 148.301 71.974 148.141 72.8699C147.821 74.6626 147.079 77.1155 145.399 79.797L144.286 79.0996C145.865 76.579 146.553 74.2888 146.848 72.6387C146.996 71.8132 147.045 71.1478 147.057 70.6941C147.064 70.4672 147.061 70.2935 147.057 70.1794C147.055 70.1223 147.053 70.0802 147.051 70.0538C147.05 70.0406 147.049 70.0313 147.049 70.0261C147.049 70.0234 147.049 70.0218 147.049 70.0212C147.049 70.021 147.049 70.0209 147.049 70.0211C147.049 70.0213 147.049 70.0214 147.049 70.0217C147.049 70.0218 147.049 70.022 147.049 70.0221C147.049 70.0223 147.049 70.0226 147.703 69.9618ZM145.399 79.797C143.661 82.5707 141.712 85.0621 140.201 86.8575C139.445 87.756 138.797 88.4823 138.336 88.9848C138.106 89.2361 137.923 89.4315 137.797 89.5646C137.734 89.6312 137.685 89.6822 137.652 89.7168C137.635 89.7341 137.622 89.7473 137.614 89.7564C137.609 89.7609 137.606 89.7644 137.604 89.7668C137.602 89.768 137.601 89.7689 137.601 89.7696C137.6 89.7699 137.6 89.7702 137.6 89.7704C137.6 89.7705 137.6 89.7706 137.6 89.7706C137.6 89.7707 137.6 89.7708 137.13 89.312C136.66 88.8532 136.66 88.8533 136.66 88.8533C136.66 88.8533 136.66 88.8533 136.66 88.8533C136.66 88.8532 136.66 88.8531 136.66 88.8529C136.66 88.8525 136.661 88.8518 136.662 88.8509C136.664 88.849 136.667 88.8461 136.67 88.8422C136.678 88.8343 136.69 88.8222 136.705 88.8061C136.736 88.7738 136.783 88.7252 136.843 88.6612C136.965 88.533 137.143 88.3431 137.368 88.0976C137.817 87.6066 138.453 86.8942 139.196 86.0116C140.683 84.2446 142.591 81.8042 144.286 79.0995L145.399 79.797ZM137.13 89.312C136.66 89.7707 136.659 89.7707 136.659 89.7706C136.659 89.7705 136.659 89.7704 136.659 89.7703C136.659 89.7701 136.659 89.7699 136.658 89.7695C136.658 89.7688 136.657 89.7679 136.656 89.7667C136.653 89.7643 136.65 89.7608 136.646 89.7563C136.637 89.7473 136.624 89.7341 136.607 89.7167C136.574 89.6821 136.525 89.6311 136.462 89.5646C136.336 89.4314 136.153 89.236 135.923 88.9847C135.463 88.4823 134.815 87.756 134.058 86.8574C132.548 85.0621 130.599 82.5707 128.861 79.797L129.975 79.0995C131.669 81.8042 133.577 84.2447 135.063 86.0116C135.806 86.8942 136.442 87.6067 136.892 88.0977C137.117 88.3431 137.295 88.5331 137.416 88.6612C137.477 88.7253 137.523 88.7738 137.554 88.8061C137.57 88.8223 137.581 88.8343 137.589 88.8422C137.593 88.8462 137.596 88.8491 137.597 88.8509C137.598 88.8519 137.599 88.8525 137.599 88.8529C137.6 88.8531 137.6 88.8532 137.6 88.8533C137.6 88.8533 137.6 88.8533 137.6 88.8534C137.6 88.8533 137.6 88.8533 137.13 89.312ZM128.861 79.797C127.182 77.1155 126.44 74.6626 126.119 72.8699C125.959 71.974 125.904 71.2432 125.89 70.731C125.882 70.4748 125.885 70.2732 125.89 70.1327C125.893 70.0625 125.896 70.0075 125.898 69.9686C125.9 69.9491 125.901 69.9337 125.902 69.9224C125.902 69.9168 125.903 69.9121 125.903 69.9086C125.903 69.9068 125.903 69.9053 125.903 69.904C125.903 69.9034 125.903 69.9028 125.903 69.9023C125.903 69.902 125.903 69.9017 125.903 69.9016C125.904 69.9013 125.904 69.901 126.558 69.9618C127.212 70.0226 127.212 70.0223 127.212 70.0221C127.212 70.022 127.212 70.0218 127.212 70.0217C127.212 70.0214 127.212 70.0213 127.212 70.0211C127.212 70.0209 127.212 70.021 127.212 70.0212C127.212 70.0218 127.211 70.0234 127.211 70.0261C127.211 70.0313 127.21 70.0406 127.209 70.0538C127.208 70.0802 127.205 70.1223 127.203 70.1794C127.199 70.2935 127.196 70.4672 127.203 70.6941C127.216 71.1478 127.265 71.8132 127.412 72.6387C127.707 74.2888 128.396 76.579 129.975 79.0996L128.861 79.797Z" fill="#15294A"/>
<path id="Fill 72" fill-rule="evenodd" clip-rule="evenodd" d="M33.0769 45.7001C33.0769 49.6409 36.2716 52.8357 40.2125 52.8357C44.1534 52.8357 47.347 49.6409 47.347 45.7001C47.347 41.7592 44.1534 38.5645 40.2125 38.5645C36.2716 38.5645 33.0769 41.7592 33.0769 45.7001Z" fill="#9747FF"/>
<path id="Fill 74" fill-rule="evenodd" clip-rule="evenodd" d="M37.8386 24.9394C40.7149 24.9394 43.0458 22.6085 43.0458 19.7322C43.0458 16.8569 40.7149 14.525 37.8386 14.525C34.9633 14.525 32.6324 16.8569 32.6324 19.7322C32.6324 22.6085 34.9633 24.9394 37.8386 24.9394ZM24.7438 19.7329C24.7438 12.5016 30.6067 6.63867 37.838 6.63867L42.1404 6.63867L43.0042 7.70113C46.8957 9.37417 49.813 12.8758 50.6716 17.1267L52.7913 19.7329L49.8298 26.3956C49.4231 27.581 48.8777 28.8684 48.1274 30.2272L42.1404 43.6997L37.838 43.6997C37.838 43.6997 32.5373 38.2687 28.2864 31.4841C24.2499 25.0399 24.7438 19.7329 24.7438 19.7329Z" fill="#18489A"/>
<path id="Stroke 76" d="M24.7438 19.7329L25.4006 19.7329C25.4006 19.7532 25.3996 19.7735 25.3978 19.7938L24.7438 19.7329ZM42.1404 6.63867L42.1404 5.98186C42.3381 5.98186 42.5253 6.07092 42.65 6.22432L42.1404 6.63867ZM43.0042 7.70113L42.7448 8.30454C42.6474 8.26265 42.5615 8.19778 42.4946 8.11549L43.0042 7.70113ZM50.6716 17.1267L50.162 17.5411C50.0949 17.4586 50.0488 17.361 50.0278 17.2567L50.6716 17.1267ZM52.7913 19.7329L53.3008 19.3185C53.4569 19.5104 53.4919 19.7736 53.3915 19.9997L52.7913 19.7329ZM49.8298 26.3956L49.2086 26.1825C49.2148 26.1643 49.2218 26.1464 49.2296 26.1288L49.8298 26.3956ZM48.1274 30.2272L47.5271 29.9605C47.5348 29.9432 47.5432 29.9262 47.5524 29.9097L48.1274 30.2272ZM42.1404 43.6997L42.7406 43.9665C42.6352 44.2037 42.4 44.3565 42.1404 44.3565L42.1404 43.6997ZM37.838 43.6997L37.838 44.3565C37.661 44.3565 37.4916 44.2851 37.368 44.1585L37.838 43.6997ZM28.2864 31.4841L27.7298 31.8328L27.7297 31.8327L28.2864 31.4841ZM37.8386 24.2826C40.3522 24.2826 42.389 22.2457 42.389 19.7322L43.7026 19.7322C43.7026 22.9712 41.0777 25.5962 37.8386 25.5962L37.8386 24.2826ZM42.389 19.7322C42.389 17.2196 40.3521 15.1818 37.8386 15.1818L37.8386 13.8682C41.0777 13.8682 43.7026 16.4943 43.7026 19.7322L42.389 19.7322ZM37.8386 15.1818C35.3262 15.1818 33.2892 17.2195 33.2892 19.7322L31.9756 19.7322C31.9756 16.4943 34.6004 13.8682 37.8386 13.8682L37.8386 15.1818ZM33.2892 19.7322C33.2892 22.2458 35.3262 24.2826 37.8386 24.2826L37.8386 25.5962C34.6005 25.5962 31.9756 22.9712 31.9756 19.7322L33.2892 19.7322ZM24.087 19.7329C24.087 12.1389 30.244 5.98186 37.838 5.98186L37.838 7.29549C30.9695 7.29549 25.4006 12.8644 25.4006 19.7329L24.087 19.7329ZM37.838 5.98186L42.1404 5.98186L42.1404 7.29549L37.838 7.29549L37.838 5.98186ZM42.65 6.22432L43.5138 7.28678L42.4946 8.11549L41.6308 7.05303L42.65 6.22432ZM43.2636 7.09772C47.3495 8.85431 50.4133 12.5305 51.3154 16.9966L50.0278 17.2567C49.2127 13.221 46.4419 9.89402 42.7448 8.30454L43.2636 7.09772ZM51.1812 16.7122L53.3008 19.3185L52.2817 20.1473L50.162 17.5411L51.1812 16.7122ZM53.3915 19.9997L50.43 26.6624L49.2296 26.1288L52.1911 19.4661L53.3915 19.9997ZM50.4511 26.6087C50.0331 27.8271 49.4727 29.1497 48.7023 30.5447L47.5524 29.9097C48.2827 28.5871 48.8131 27.335 49.2086 26.1825L50.4511 26.6087ZM48.7276 30.4939L42.7406 43.9665L41.5402 43.433L47.5271 29.9605L48.7276 30.4939ZM42.1404 44.3565L37.838 44.3565L37.838 43.0429L42.1404 43.0429L42.1404 44.3565ZM37.838 43.6997C37.368 44.1585 37.3679 44.1584 37.3678 44.1583C37.3677 44.1583 37.3676 44.1582 37.3675 44.158C37.3673 44.1578 37.367 44.1575 37.3666 44.1571C37.3658 44.1563 37.3647 44.1552 37.3633 44.1537C37.3605 44.1508 37.3564 44.1466 37.351 44.141C37.3403 44.13 37.3246 44.1138 37.3041 44.0924C37.2631 44.0498 37.2029 43.987 37.1251 43.9048C36.9695 43.7406 36.7433 43.4992 36.459 43.1887C35.8903 42.5678 35.0888 41.67 34.1537 40.5591C32.2853 38.339 29.8769 35.2596 27.7298 31.8328L28.8429 31.1353C30.9468 34.4931 33.3142 37.5215 35.1588 39.7132C36.0803 40.8081 36.8696 41.6921 37.4277 42.3015C37.7067 42.6062 37.9279 42.8421 38.0787 43.0014C38.1542 43.081 38.212 43.1415 38.2508 43.1817C38.2701 43.2018 38.2847 43.2169 38.2943 43.2268C38.2991 43.2318 38.3027 43.2355 38.305 43.2378C38.3061 43.239 38.307 43.2399 38.3075 43.2404C38.3077 43.2406 38.3079 43.2408 38.308 43.2409C38.308 43.241 38.3081 43.241 38.3081 43.241C38.3081 43.241 38.308 43.241 37.838 43.6997ZM27.7297 31.8327C25.6611 28.5302 24.7486 25.5111 24.3548 23.3075C24.158 22.2061 24.0907 21.3087 24.0731 20.6812C24.0643 20.3674 24.0679 20.121 24.074 19.9501C24.0771 19.8647 24.0808 19.7981 24.0838 19.7514C24.0853 19.7281 24.0867 19.7097 24.0877 19.6964C24.0882 19.6898 24.0887 19.6844 24.089 19.6804C24.0892 19.6783 24.0894 19.6766 24.0895 19.6752C24.0896 19.6745 24.0896 19.6739 24.0897 19.6734C24.0897 19.6731 24.0897 19.6728 24.0897 19.6726C24.0898 19.6723 24.0898 19.672 24.7438 19.7329C25.3978 19.7938 25.3978 19.7935 25.3978 19.7933C25.3978 19.7932 25.3978 19.793 25.3978 19.7929C25.3979 19.7927 25.3979 19.7926 25.3979 19.7925C25.3979 19.7924 25.3979 19.7926 25.3978 19.7932C25.3977 19.7943 25.3975 19.7966 25.3972 19.8002C25.3967 19.8074 25.3958 19.8196 25.3946 19.8367C25.3924 19.8709 25.3894 19.9247 25.3868 19.9969C25.3817 20.1414 25.3783 20.36 25.3862 20.6444C25.4022 21.2134 25.4637 22.0455 25.6479 23.0764C26.0163 25.1374 26.8751 27.9938 28.843 31.1354L27.7297 31.8327Z" fill="#15294A"/>
<path id="Fill 78" fill-rule="evenodd" clip-rule="evenodd" d="M42.1394 24.9394C45.0157 24.9394 47.3466 22.6085 47.3466 19.7322C47.3466 16.8569 45.0157 14.525 42.1394 14.525C39.2641 14.525 36.9332 16.8569 36.9332 19.7322C36.9332 22.6085 39.2641 24.9394 42.1394 24.9394ZM29.0453 19.7329C29.0453 12.5016 34.9083 6.63867 42.1395 6.63867C49.3718 6.63867 55.2337 12.5016 55.2337 19.7329C55.2337 19.7329 55.7287 25.0399 51.6922 31.4841C47.4413 38.2687 42.1395 43.6997 42.1395 43.6997C42.1395 43.6997 36.8388 38.2687 32.5879 31.4841C28.5514 25.0399 29.0453 19.7329 29.0453 19.7329Z" fill="#FEFEFF"/>
<path id="Stroke 80" d="M29.0453 19.7329L29.7021 19.7329C29.7021 19.7532 29.7012 19.7735 29.6993 19.7938L29.0453 19.7329ZM55.2337 19.7329L54.5798 19.7939C54.5779 19.7736 54.5769 19.7533 54.5769 19.7329L55.2337 19.7329ZM51.6922 31.4841L52.2488 31.8327L52.2488 31.8328L51.6922 31.4841ZM42.1395 43.6997L42.6095 44.1585C42.4859 44.2852 42.3164 44.3566 42.1395 44.3565C41.9625 44.3565 41.7931 44.2851 41.6695 44.1585L42.1395 43.6997ZM32.5879 31.4841L32.0313 31.8328L32.0312 31.8327L32.5879 31.4841ZM42.1394 24.2826C44.6529 24.2826 46.6898 22.2457 46.6898 19.7322L48.0034 19.7322C48.0034 22.9712 45.3784 25.5962 42.1394 25.5962L42.1394 24.2826ZM46.6898 19.7322C46.6898 17.2196 44.6528 15.1818 42.1394 15.1818L42.1394 13.8682C45.3785 13.8682 48.0034 16.4942 48.0034 19.7322L46.6898 19.7322ZM42.1394 15.1818C39.627 15.1818 37.59 17.2195 37.59 19.7322L36.2764 19.7322C36.2764 16.4943 38.9012 13.8682 42.1394 13.8682L42.1394 15.1818ZM37.59 19.7322C37.59 22.2458 39.6269 24.2826 42.1394 24.2826L42.1394 25.5962C38.9013 25.5962 36.2764 22.9712 36.2764 19.7322L37.59 19.7322ZM28.3885 19.7329C28.3885 12.1389 34.5455 5.98186 42.1395 5.98186L42.1395 7.29549C35.271 7.29549 29.7021 12.8644 29.7021 19.7329L28.3885 19.7329ZM42.1395 5.98186C49.7346 5.98186 55.8905 12.1389 55.8905 19.7329L54.5769 19.7329C54.5769 12.8644 49.009 7.29549 42.1395 7.29549L42.1395 5.98186ZM55.2337 19.7329C55.8877 19.6719 55.8877 19.6722 55.8878 19.6725C55.8878 19.6726 55.8878 19.673 55.8878 19.6733C55.8879 19.6738 55.8879 19.6744 55.888 19.6751C55.8881 19.6765 55.8883 19.6782 55.8884 19.6802C55.8888 19.6843 55.8893 19.6897 55.8898 19.6963C55.8908 19.7096 55.8922 19.7279 55.8937 19.7513C55.8968 19.798 55.9004 19.8645 55.9035 19.95C55.9096 20.1209 55.9133 20.3673 55.9046 20.6811C55.8871 21.3086 55.8199 22.206 55.6232 23.3074C55.2297 25.511 54.3175 28.5302 52.2488 31.8327L51.1356 31.1354C53.1034 27.9938 53.962 25.1374 54.3301 23.0765C54.5142 22.0456 54.5756 21.2135 54.5914 20.6445C54.5994 20.3601 54.5959 20.1416 54.5907 19.997C54.5881 19.9248 54.5851 19.871 54.5829 19.8368C54.5818 19.8197 54.5809 19.8075 54.5803 19.8003C54.58 19.7967 54.5798 19.7944 54.5797 19.7933C54.5797 19.7928 54.5796 19.7925 54.5796 19.7926C54.5796 19.7927 54.5797 19.7928 54.5797 19.793C54.5797 19.7931 54.5797 19.7933 54.5797 19.7934C54.5797 19.7936 54.5798 19.7939 55.2337 19.7329ZM52.2488 31.8328C50.1017 35.2596 47.693 38.3391 45.8243 40.5591C44.8891 41.67 44.0874 42.5678 43.5187 43.1888C43.2343 43.4992 43.008 43.7406 42.8524 43.9049C42.7746 43.987 42.7144 44.0499 42.6734 44.0925C42.6529 44.1138 42.6372 44.13 42.6265 44.1411C42.6211 44.1466 42.617 44.1508 42.6142 44.1538C42.6128 44.1552 42.6117 44.1563 42.6109 44.1571C42.6105 44.1575 42.6102 44.1579 42.61 44.1581C42.6098 44.1582 42.6097 44.1583 42.6097 44.1584C42.6096 44.1585 42.6095 44.1585 42.1395 43.6997C41.6695 43.2409 41.6695 43.241 41.6695 43.241C41.6695 43.2409 41.6695 43.2409 41.6696 43.2409C41.6697 43.2408 41.6698 43.2406 41.6701 43.2403C41.6706 43.2398 41.6714 43.239 41.6726 43.2378C41.6749 43.2354 41.6784 43.2318 41.6832 43.2268C41.6928 43.2169 41.7074 43.2018 41.7268 43.1817C41.7655 43.1414 41.8234 43.081 41.8989 43.0013C42.0498 42.8421 42.2709 42.6062 42.55 42.3015C43.1082 41.6921 43.8976 40.8081 44.8193 39.7132C46.6641 37.5215 49.0318 34.4931 51.1356 31.1353L52.2488 31.8328ZM42.1395 43.6997C41.6695 44.1585 41.6694 44.1584 41.6693 44.1583C41.6693 44.1583 41.6691 44.1582 41.669 44.158C41.6688 44.1578 41.6685 44.1575 41.6681 44.1571C41.6673 44.1563 41.6662 44.1552 41.6648 44.1537C41.662 44.1508 41.6579 44.1466 41.6525 44.141C41.6418 44.13 41.6261 44.1138 41.6056 44.0924C41.5646 44.0498 41.5044 43.987 41.4266 43.9048C41.271 43.7406 41.0448 43.4992 40.7605 43.1887C40.1918 42.5678 39.3903 41.67 38.4553 40.5591C36.5868 38.339 34.1784 35.2596 32.0313 31.8328L33.1445 31.1353C35.2483 34.4931 37.6157 37.5215 39.4603 39.7132C40.3818 40.8081 41.1711 41.6921 41.7292 42.3015C42.0083 42.6062 42.2294 42.8421 42.3803 43.0014C42.4557 43.081 42.5135 43.1415 42.5523 43.1817C42.5716 43.2018 42.5862 43.2169 42.5958 43.2268C42.6006 43.2318 42.6042 43.2355 42.6065 43.2378C42.6076 43.239 42.6085 43.2399 42.609 43.2404C42.6092 43.2406 42.6094 43.2408 42.6095 43.2409C42.6096 43.241 42.6096 43.241 42.6096 43.241C42.6096 43.241 42.6096 43.241 42.1395 43.6997ZM32.0312 31.8327C29.9626 28.5302 29.0501 25.5111 28.6563 23.3075C28.4595 22.2061 28.3922 21.3087 28.3746 20.6812C28.3658 20.3674 28.3695 20.121 28.3756 19.9501C28.3786 19.8647 28.3823 19.7981 28.3853 19.7514C28.3868 19.7281 28.3882 19.7097 28.3892 19.6964C28.3898 19.6898 28.3902 19.6844 28.3906 19.6804C28.3907 19.6783 28.3909 19.6766 28.391 19.6752C28.3911 19.6745 28.3911 19.6739 28.3912 19.6734C28.3912 19.6731 28.3912 19.6728 28.3912 19.6726C28.3913 19.6723 28.3913 19.672 29.0453 19.7329C29.6993 19.7938 29.6993 19.7935 29.6993 19.7933C29.6993 19.7932 29.6993 19.793 29.6994 19.7929C29.6994 19.7927 29.6994 19.7926 29.6994 19.7925C29.6994 19.7924 29.6994 19.7926 29.6993 19.7932C29.6992 19.7943 29.699 19.7966 29.6988 19.8002C29.6982 19.8074 29.6973 19.8196 29.6962 19.8367C29.6939 19.8709 29.6909 19.9247 29.6883 19.9969C29.6832 20.1414 29.6798 20.36 29.6877 20.6444C29.7037 21.2134 29.7652 22.0455 29.9495 23.0764C30.3178 25.1374 31.1767 27.9938 33.1445 31.1354L32.0312 31.8327Z" fill="#15294A"/>
</g>
</g>
</svg>
