<svg width="238" height="239" viewBox="0 0 238 239" fill="none" xmlns="http://www.w3.org/2000/svg">
<g filter="url(#filter0_d_1721_29112)">
<rect x="9" y="7.26172" width="219.938" height="219.938" rx="109.969" fill="#FEFEFF" shape-rendering="crispEdges"/>
<path fill-rule="evenodd" clip-rule="evenodd" d="M190.152 72.8775C190.152 87.0821 178.637 98.5969 164.432 98.5969C150.228 98.5969 138.713 87.0821 138.713 72.8775C138.713 58.673 150.228 47.1582 164.432 47.1582C178.637 47.1582 190.152 58.673 190.152 72.8775Z" fill="#FEFEFF"/>
<path fill-rule="evenodd" clip-rule="evenodd" d="M190.152 72.8775C190.152 87.0821 178.637 98.5969 164.432 98.5969C150.228 98.5969 138.713 87.0821 138.713 72.8775C138.713 58.673 150.228 47.1582 164.432 47.1582C178.637 47.1582 190.152 58.673 190.152 72.8775Z" fill="#9747FF" stroke="#15294A" stroke-width="1.33421" stroke-linecap="round" stroke-linejoin="round"/>
<path fill-rule="evenodd" clip-rule="evenodd" d="M186.003 72.8741C186.003 84.787 176.346 94.4435 164.433 94.4435C152.521 94.4435 142.863 84.787 142.863 72.8741C142.863 60.9622 152.521 51.3047 164.433 51.3047C176.346 51.3047 186.003 60.9622 186.003 72.8741Z" fill="#F7F7F9" stroke="#15294A" stroke-width="2.13474" stroke-linecap="round" stroke-linejoin="round"/>
<path d="M164.35 56.0469V59.2031" stroke="#15294A" stroke-width="1.33421" stroke-linecap="round" stroke-linejoin="round"/>
<path d="M147.602 72.9556H150.758" stroke="#15294A" stroke-width="1.33421" stroke-linecap="round" stroke-linejoin="round"/>
<path d="M164.51 89.705V86.5488" stroke="#15294A" stroke-width="1.33421" stroke-linecap="round" stroke-linejoin="round"/>
<path d="M181.26 72.7954H178.104" stroke="#15294A" stroke-width="1.33421" stroke-linecap="round" stroke-linejoin="round"/>
<path d="M164.593 63.3379L164.432 72.878L160.84 77.3343" stroke="#15294A" stroke-width="1.33421" stroke-linecap="round" stroke-linejoin="round"/>
<path d="M92.9577 79.2696C92.2564 68.4979 97.0887 47.0685 112.54 47.3592C118.434 46.3822 129.028 53.8341 128.537 79.939" stroke="#15294A" stroke-width="2.38128"/>
<path d="M48.3992 173.167L57.5816 73.4789C57.6388 72.8577 58.1659 72.386 58.7896 72.3977L152.078 74.1528C152.681 74.1642 153.181 74.6252 153.24 75.2258L162.81 171.781C162.866 172.345 162.517 172.869 161.976 173.036L128.901 183.241C128.745 183.29 128.58 183.305 128.418 183.287L49.4526 174.459C48.808 174.387 48.3397 173.813 48.3992 173.167Z" fill="#D9DBDE" stroke="#15294A" stroke-width="2.38128"/>
<path d="M125.018 74.052L58.7962 72.4046C58.1698 72.389 57.6385 72.8616 57.581 73.4856L48.3992 173.167C48.3397 173.813 48.808 174.387 49.4526 174.459L127.31 183.163C128.027 183.243 128.649 182.673 128.633 181.952L126.179 75.2149C126.164 74.5796 125.653 74.0678 125.018 74.052Z" fill="#FEFEFF" stroke="#15294A" stroke-width="2.38128"/>
<path fill-rule="evenodd" clip-rule="evenodd" d="M74.5445 80.9996C74.5057 83.0618 72.8018 84.7024 70.7391 84.6636C68.6764 84.6247 67.0354 82.9212 67.0742 80.859C67.113 78.7968 68.8169 77.1545 70.8796 77.1933C72.9423 77.2321 74.5833 78.9373 74.5445 80.9996Z" fill="#15294A"/>
<path fill-rule="evenodd" clip-rule="evenodd" d="M110.236 81.6734C110.197 83.7356 108.493 85.3762 106.431 85.3374C104.368 85.2986 102.727 83.5951 102.766 81.5328C102.804 79.4706 104.508 77.8283 106.571 77.8671C108.634 77.906 110.275 79.6112 110.236 81.6734Z" fill="#15294A"/>
<path d="M140.877 85.9824L146.55 159.572L139.3 169.815" stroke="#15294A" stroke-width="1.19064" stroke-linecap="round"/>
<path d="M146.549 159.572L153.518 164.27" stroke="#15294A" stroke-width="1.19064" stroke-linecap="round"/>
<path d="M71.3424 80.5255C70.6412 69.7538 75.4735 48.3244 90.9251 48.6151C96.819 47.638 107.413 55.09 106.922 81.1948" stroke="#15294A" stroke-width="2.38128"/>
<path d="M53.669 147.149L53.6693 122.176L48.9062 173.373L87.8773 177.599C89.2868 177.752 89.7352 175.755 88.3957 175.291L68.8795 168.523C59.7742 165.365 53.6689 156.786 53.669 147.149Z" fill="#4FE8B7"/>
</g>
<defs>
<filter id="filter0_d_1721_29112" x="0.156131" y="0.628817" width="237.625" height="237.625" filterUnits="userSpaceOnUse" color-interpolation-filters="sRGB">
<feFlood flood-opacity="0" result="BackgroundImageFix"/>
<feColorMatrix in="SourceAlpha" type="matrix" values="0 0 0 0 0 0 0 0 0 0 0 0 0 0 0 0 0 0 127 0" result="hardAlpha"/>
<feOffset dy="2.21097"/>
<feGaussianBlur stdDeviation="4.42193"/>
<feComposite in2="hardAlpha" operator="out"/>
<feColorMatrix type="matrix" values="0 0 0 0 0.101961 0 0 0 0 0.2 0 0 0 0 0.364706 0 0 0 0.16 0"/>
<feBlend mode="normal" in2="BackgroundImageFix" result="effect1_dropShadow_1721_29112"/>
<feBlend mode="normal" in="SourceGraphic" in2="effect1_dropShadow_1721_29112" result="shape"/>
</filter>
</defs>
</svg>
