<svg width="148" height="144" viewBox="0 0 148 144" fill="none" xmlns="http://www.w3.org/2000/svg">
<g id="Group 133544">
<rect id="Rectangle 458" width="148" height="144" rx="8" fill="#F7F7F9"/>
<g id="Group 133551">
<path id="Vector 24" d="M62.5 66.5L36.5 91V96C36.5 103.732 42.768 110 50.5 110H96.5C104.232 110 110.5 103.732 110.5 96V81.5L100 70H96L85.5 81.5L67 66.5H62.5Z" fill="#AEB1B7"/>
<path id="Icon" d="M37 90L58.4003 68.5997C62.0452 64.9548 67.9548 64.9548 71.5997 68.5997L93 90M83.6667 80.6667L91.067 73.2663C94.7119 69.6214 100.621 69.6214 104.266 73.2663L111.667 80.6667M83.6667 52.6667H83.7133M46.3333 108.667H102.333C107.488 108.667 111.667 104.488 111.667 99.3333V43.3333C111.667 38.1787 107.488 34 102.333 34H46.3333C41.1787 34 37 38.1787 37 43.3333V99.3333C37 104.488 41.1787 108.667 46.3333 108.667Z" stroke="#AEB1B7" stroke-width="4" stroke-linecap="round" stroke-linejoin="round"/>
<circle id="Ellipse 107" cx="84" cy="54" r="5" fill="#AEB1B7"/>
</g>
</g>
</svg>
